<svg xmlns="http://www.w3.org/2000/svg" viewBox="0 0 446 446"><g fill="#149f49" fill-rule="evenodd"><path d="M250 198c-8-2-16-1-24-1h-35v63h42c8 0 15 0 22-3a30 30 0 0 0 20-21c1-9 0-18-4-25-5-7-13-12-21-13z"/><path d="M223 0a223 223 0 1 0 0 446 223 223 0 0 0 0-446zm-93 262c12 1 23-7 28-18a33 33 0 0 0 3-16 31 31 0 0 0-31-33v-25c9 1 17-3 23-10a32 32 0 0 0 8-23 31 31 0 0 0-31-28V81h119c16 1 32 7 44 18a50 50 0 0 1 15 27c2 13 0 27-7 38-5 7-13 13-21 17 13 5 24 14 30 25 9 17 8 37-1 53-6 11-17 20-28 25s-25 6-38 6H130v-28zm186 103H130v-30h186v30z"/><path d="M229 169c6 0 13 1 19-1 10-3 19-11 20-22 2-8 0-18-6-25s-16-10-26-10h-45v58z"/></g><path fill="#fff" d="M243 290c13 0 26-1 38-6s22-14 28-25c9-16 10-36 1-53-6-11-17-20-30-25 8-4 16-10 21-17 7-11 9-25 7-38a50 50 0 0 0-15-27 71 71 0 0 0-44-18H130v28l15 3c9 5 15 15 16 25a32 32 0 0 1-8 23c-6 7-14 11-23 10v25c6 1 13 2 17 6 10 6 15 16 14 27a33 33 0 0 1-3 16c-5 11-16 18-28 18v28zm32-54a30 30 0 0 1-20 21c-7 3-14 3-22 3h-42v-63h35c8 0 16-1 24 1 8 1 16 6 21 13 4 7 5 16 4 25zm-84-125h45c10 0 20 3 26 10s8 17 6 25c-1 11-10 19-20 22-6 2-13 1-19 1h-38v-58z"/><path fill="#73c692" d="M245 335H130v30h186v-30h-71z"/></svg>