<svg width="16" height="16" fill="none" xmlns="http://www.w3.org/2000/svg"><path d="M11.404 9.458v-4.15h.826v4.15h-.826Z" fill="#F7A600"/><path d="M1.772 10.691H0v-4.15h1.7c.827 0 1.309.455 1.309 1.166 0 .46-.31.758-.524.857.256.117.583.379.583.933 0 .774-.541 1.194-1.296 1.194Zm-.137-3.426H.826v.955h.81c.35 0 .546-.192.546-.478 0-.285-.196-.477-.547-.477Zm.054 1.684H.826v1.02h.863c.374 0 .552-.233.552-.513s-.178-.507-.552-.507ZM5.589 8.99v1.701h-.821V8.989L3.496 6.542h.897l.791 1.672.779-1.672h.898L5.589 8.989ZM9.204 10.691H7.432v-4.15h1.7c.827 0 1.309.455 1.309 1.166 0 .46-.31.758-.524.857.256.117.583.379.583.933 0 .774-.541 1.194-1.296 1.194Zm-.137-3.426h-.809v.955h.809c.35 0 .547-.192.547-.478 0-.285-.196-.477-.547-.477Zm.053 1.684h-.862v1.02h.862c.375 0 .553-.233.553-.513s-.178-.507-.553-.507ZM14.894 7.265v3.426h-.827V7.265h-1.106v-.723H16v.723h-1.106Z" fill="#000"/></svg>