<svg width="40" height="40" fill="none" xmlns="http://www.w3.org/2000/svg"><path fill-rule="evenodd" clip-rule="evenodd" d="M26.054 0c4.016 0 6.023 0 8.185.683a8.495 8.495 0 0 1 5.078 5.078C40 7.922 40 9.931 40 13.946v12.108c0 4.016 0 6.023-.683 8.185a8.494 8.494 0 0 1-5.078 5.077C32.077 40 30.07 40 26.054 40H13.946c-4.016 0-6.024 0-8.185-.684A8.494 8.494 0 0 1 .683 34.24C0 32.077 0 30.07 0 26.054V13.946C0 9.93 0 7.922.683 5.76A8.495 8.495 0 0 1 5.761.683C7.922 0 9.93 0 13.946 0h12.108Z" fill="#0B1426"/><mask id="a" style="mask-type:alpha" maskUnits="userSpaceOnUse" x="0" y="0" width="40" height="40"><path fill-rule="evenodd" clip-rule="evenodd" d="M26.054 0c4.016 0 6.023 0 8.185.683a8.495 8.495 0 0 1 5.078 5.078C40 7.922 40 9.931 40 13.946v12.108c0 4.016 0 6.023-.683 8.185a8.494 8.494 0 0 1-5.078 5.077C32.077 40 30.07 40 26.054 40H13.946c-4.016 0-6.024 0-8.185-.684A8.494 8.494 0 0 1 .683 34.24C0 32.077 0 30.07 0 26.054V13.946C0 9.93 0 7.922.683 5.76A8.495 8.495 0 0 1 5.761.683C7.922 0 9.93 0 13.946 0h12.108Z" fill="#fff"/></mask><g mask="url(#a)"><path fill="#0B1426" d="M0 0h40v40H0z"/><path fill-rule="evenodd" clip-rule="evenodd" d="M34 12v16l-14.045 8L6 28V12l13.955-8L34 12Zm-26.833.663v14.602l12.788 7.302 12.76-7.302V12.663L19.955 5.37 7.167 12.663Z" fill="#fff"/><path d="M25.413 10.91H14.524l-1.251 5.808 13.454.01-1.314-5.819ZM16.614 20.584l-3.276-2.039-3.702 2.695 5.054 8.578h2.015l2.386-2.18v-1.081l-2.477-2.322v-3.651ZM27.013 18.545l-3.258 2.065v3.652l-2.482 2.313.009 1.099 2.4 2.144h1.999l5.046-8.552-3.714-2.72Z" fill="#fff"/><path d="m16.545 17.455 1.225 3.094L17.392 24l5.58-.009-.35-3.442 1.196-3.094h-7.273Z" fill="#fff"/></g></svg>