<svg width="1080" height="1080" fill="none" xmlns="http://www.w3.org/2000/svg"><path fill="#fff" d="M0 0h1080v1080H0z"/><path fill-rule="evenodd" clip-rule="evenodd" d="M425.465 236H249.533c-7.474 0-13.533 6.059-13.533 13.533v175.932c0 7.475 6.059 13.534 13.533 13.534h175.932c7.475 0 13.534-6.059 13.534-13.534V249.533c0-7.474-6.059-13.533-13.534-13.533Zm203.087 202.999H452.62c-7.475 0-13.534 6.059-13.534 13.533v175.932c0 7.474 6.059 13.533 13.534 13.533h175.932c7.474 0 13.533-6.059 13.533-13.533V452.532c0-7.474-6.059-13.533-13.533-13.533ZM655.532 236h175.932c7.474 0 13.533 6.059 13.533 13.533v175.932c0 7.475-6.059 13.534-13.533 13.534H655.532c-7.475 0-13.534-6.059-13.534-13.534V249.533c0-7.474 6.059-13.533 13.534-13.533ZM425.465 641.998H249.533c-7.474 0-13.533 6.059-13.533 13.534v175.932c0 7.474 6.059 13.533 13.533 13.533h175.932c7.475 0 13.534-6.059 13.534-13.533V655.532c0-7.475-6.059-13.534-13.534-13.534Zm230.067 0h175.932c7.474 0 13.533 6.059 13.533 13.534v175.932c0 7.474-6.059 13.533-13.533 13.533H655.532c-7.475 0-13.534-6.059-13.534-13.533V655.532c0-7.475 6.059-13.534 13.534-13.534Z" fill="#000"/></svg>